<svg xmlns="http://www.w3.org/2000/svg" viewBox="0 0 32 32">
  <!-- Modern Geometric 2D Cloud with Romanian Flag Colors -->
  <path d="M16 8 C11 8 10 12 10 13 C7 13 7 17 9 17 L23 17 C25 17 25 13 22 13 C22 10 18 8 16 8 Z" fill="#002B7F"/>
  <path d="M16 11 C13 11 12.5 13.5 12.5 14.5 C10.5 14.5 10.5 17.5 12 17.5 L20 17.5 C21.5 17.5 21.5 14.5 19.5 14.5 C19.5 12.5 17.5 11 16 11 Z" fill="#FCD116"/>
  <path d="M16 13 C14.5 13 14 14.5 14 15.5 C13 15.5 13 17.5 14 17.5 L18 17.5 C19 17.5 19 15.5 18 15.5 C18 14 17 13 16 13 Z" fill="#CE1126"/>
</svg>
